<svg width="56" height="58" viewBox="0 0 56 58" fill="none" xmlns="http://www.w3.org/2000/svg">
<path fill-rule="evenodd" clip-rule="evenodd" d="M30.1782 19.1632L24.3966 4.83044C24.2553 4.47981 23.8417 4.27461 23.4202 4.345C22.998 4.41599 22.6909 4.74188 22.6944 5.11525L22.8571 22.2428L4.55142 14.8532C4.14364 14.6881 3.65347 14.8243 3.42093 15.1664C3.18841 15.5091 3.29007 15.9453 3.65543 16.1724L19.9728 26.3238L7.18044 32.1077C6.81588 32.2723 6.62518 32.6334 6.72157 32.978C6.81796 33.3227 7.17554 33.5592 7.58355 33.5483L23.4309 33.1356L18.6058 49.0731C18.4963 49.4338 18.6989 49.806 19.0857 49.9553C19.4725 50.1047 19.931 49.9882 20.1728 49.6787L30.5322 36.4273L41.0792 51.8782C41.2935 52.1931 41.7391 52.3243 42.1359 52.1907C42.5334 52.0571 42.7686 51.696 42.6962 51.3332L39.2417 34.1636L48.3692 38.225C48.7389 38.3893 49.1948 38.3012 49.458 38.0141C49.7211 37.7265 49.7188 37.321 49.4515 37.0443L42.0582 29.3913L47.4291 27.269C47.7824 27.1294 47.9936 26.8064 47.9495 26.4733C47.9061 26.1401 47.6176 25.8748 47.2382 25.8202L42.2827 25.1002L50.6605 19.0584C50.9741 18.8328 51.0739 18.4522 50.9027 18.1367C50.7321 17.8206 50.3337 17.6515 49.9389 17.7263L37.4555 20.0881L39.4587 9.50878C39.5266 9.1524 39.3006 8.80779 38.9166 8.68149C38.5326 8.55518 38.0953 8.68138 37.866 8.98454L30.1782 19.1632ZM29.105 21.132C29.2147 21.4039 29.492 21.5952 29.8215 21.6265C30.151 21.6578 30.4763 21.5233 30.6604 21.2796L37.0654 12.7992L35.5203 20.9586C35.4732 21.2068 35.5686 21.4569 35.775 21.6284C35.9814 21.7994 36.2735 21.8702 36.5556 21.8166L46.7979 19.8789L39.7006 24.9963C39.4351 25.1883 39.3183 25.4953 39.4026 25.7832C39.487 26.0711 39.7568 26.2866 40.0926 26.3358L44.1 26.9178L40.2899 28.4229C40.0372 28.5228 39.8514 28.7197 39.7873 28.9546C39.7238 29.1895 39.7899 29.4348 39.9654 29.6167L45.2882 35.1264L38.4804 32.0969C38.1844 31.9654 37.8264 31.9935 37.5561 32.1693C37.2857 32.345 37.1512 32.6382 37.209 32.9239L40.1397 47.4923L31.345 34.6082C31.1934 34.3861 30.9208 34.2487 30.622 34.2436C30.3233 34.2391 30.0395 34.3676 29.8698 34.585L21.5886 45.1784L25.4195 32.5245C25.4896 32.2925 25.4319 32.0472 25.2639 31.8616C25.0952 31.6754 24.8358 31.5704 24.5622 31.5776L11.3716 31.9212L22.0405 27.0979C22.3136 26.974 22.4962 26.7364 22.5216 26.4708C22.547 26.2051 22.4118 25.9493 22.1653 25.7959L12.3843 19.7106L23.3654 24.1432C23.6374 24.253 23.9583 24.2317 24.2139 24.0862C24.4688 23.9408 24.6223 23.6924 24.6201 23.4285L24.4898 9.68938L29.105 21.132Z" fill="#FFF7D3"/>
<path fill-rule="evenodd" clip-rule="evenodd" d="M20.3452 18.5645L5.47678 12.5619C3.98816 11.9612 2.22054 12.5308 1.37229 13.7805C0.33557 15.3064 0.717987 17.2653 2.34671 18.2787L14.729 25.9821L6.1596 29.8562C4.59997 30.5619 3.92477 32.1756 4.33639 33.6484C4.71618 35.0075 6.03732 36.0696 7.6469 36.0276L20.0672 35.7039L16.2358 48.3605C15.7602 49.9298 16.51 51.6187 18.192 52.2689C19.595 52.811 21.2445 52.3303 22.1223 51.2077L30.3958 40.6242L39.0332 53.2782C39.8313 54.4465 41.4507 55.0377 42.9253 54.5412C44.5915 53.9798 45.4276 52.3711 45.1217 50.8495L42.6127 38.3781L47.3623 40.4912C48.695 41.0842 50.332 40.7272 51.2817 39.6913C52.4663 38.3988 52.4322 36.5729 51.2308 35.3294L46.4088 30.338L48.3381 29.5758C49.8222 28.9891 50.587 27.5549 50.4032 26.1549C50.2626 25.0869 49.5694 24.1249 48.5311 23.6496L52.1075 21.0709C53.4946 20.0703 53.8354 18.3597 53.078 16.9618C52.4309 15.7666 50.9738 15.0155 49.4778 15.2986L40.5622 16.9857L41.89 9.97387C42.1798 8.44199 41.3401 6.87787 39.6895 6.33468C38.2945 5.87572 36.7222 6.39566 35.8902 7.49709L30.8374 14.1871L26.6913 3.90906C26.1479 2.56215 24.6319 1.63668 23.0101 1.90799C21.3053 2.19351 20.2038 3.63391 20.2181 5.1434L20.3452 18.5645ZM30.1772 19.1677L24.3955 4.83492C24.2543 4.48429 23.8407 4.27909 23.4191 4.34948C22.9969 4.42046 22.6899 4.74636 22.6933 5.11973L22.8561 22.2473L4.55038 14.8577C4.14261 14.6926 3.65244 14.8288 3.41989 15.1709C3.18738 15.5136 3.28903 15.9498 3.65439 16.1769L19.9718 26.3282L7.17941 32.1122C6.81485 32.2768 6.62414 32.6378 6.72054 32.9825C6.81693 33.3272 7.17451 33.5637 7.58252 33.5528L23.4299 33.14L18.6048 49.0776C18.4953 49.4383 18.6979 49.8104 19.0847 49.9598C19.4715 50.1092 19.93 49.9927 20.1718 49.6832L30.5312 36.4318L41.0781 51.8826C41.2925 52.1976 41.7381 52.3287 42.1349 52.1952C42.5324 52.0616 42.7676 51.7005 42.6952 51.3377L39.2407 34.1681L48.3682 38.2295C48.7379 38.3938 49.1938 38.3057 49.457 38.0186C49.7201 37.731 49.7178 37.3254 49.4504 37.0488L42.0572 29.3958L47.4281 27.2735C47.7814 27.1339 47.9926 26.8109 47.9485 26.4778C47.9051 26.1446 47.6166 25.8793 47.2372 25.8247L42.2817 25.1047L50.6595 19.0628C50.9731 18.8373 51.0729 18.4567 50.9017 18.1412C50.7311 17.8251 50.3327 17.656 49.9379 17.7307L37.4545 20.0926L39.4577 9.51326C39.5255 9.15687 39.2996 8.81226 38.9156 8.68596C38.5316 8.55966 38.0943 8.68586 37.865 8.98902L30.1772 19.1677ZM29.104 21.1365C29.2137 21.4084 29.491 21.5997 29.8205 21.631C30.15 21.6623 30.4753 21.5278 30.6594 21.284L37.0644 12.8037L35.5193 20.963C35.4722 21.2113 35.5676 21.4614 35.774 21.6329C35.9804 21.8039 36.2725 21.8747 36.5546 21.821L46.7969 19.8834L39.6995 25.0008C39.4341 25.1928 39.3172 25.4998 39.4016 25.7876C39.4859 26.0755 39.7558 26.2911 40.0916 26.3403L44.099 26.9222L40.2889 28.4274C40.0362 28.5273 39.8504 28.7241 39.7862 28.9591C39.7228 29.194 39.7889 29.4393 39.9644 29.6211L45.2872 35.1309L38.4793 32.1013C38.1833 31.9699 37.8254 31.998 37.5551 32.1738C37.2847 32.3495 37.1502 32.6427 37.208 32.9284L40.1387 47.4968L31.344 34.6127C31.1923 34.3905 30.9198 34.2532 30.621 34.2481C30.3222 34.2436 30.0385 34.3721 29.8688 34.5895L21.5876 45.1829L25.4185 32.529C25.4886 32.297 25.4309 32.0517 25.2629 31.8661C25.0942 31.6799 24.8347 31.5749 24.5612 31.582L11.3705 31.9257L22.0395 27.1024C22.3126 26.9785 22.4951 26.7409 22.5205 26.4753C22.5459 26.2096 22.4108 25.9538 22.1643 25.8003L12.3833 19.715L23.3643 24.1477C23.6364 24.2574 23.9573 24.2362 24.2129 24.0907C24.4678 23.9453 24.6213 23.6968 24.6191 23.433L24.4888 9.69386L29.104 21.1365ZM33.1806 22.0527L32.6342 22.776C31.9602 23.6685 30.7928 24.2099 29.5871 24.0957C28.5097 23.9931 27.6104 23.4047 27.0863 22.5962L27.0944 23.4098C27.1047 24.5288 26.5206 25.6253 25.4374 26.2421C25.2962 26.3221 25.1499 26.3918 24.9989 26.4492C24.9981 26.5367 24.9927 26.6239 24.9848 26.7113C24.8927 27.6703 24.3589 28.5782 23.4755 29.1344L24.4969 29.1078C25.5176 29.0812 26.4698 29.5112 27.098 30.2045C27.863 31.0501 28.1061 32.1695 27.7926 33.2258L27.9189 33.0649C28.5417 32.2676 29.564 31.756 30.6604 31.7732C31.7987 31.7911 32.8101 32.3694 33.3883 33.2171L35.3058 36.0261L34.7808 33.4167C34.531 32.1731 35.031 30.8629 36.2053 30.0991C36.5468 29.8767 36.9274 29.7209 37.3241 29.635C37.2541 29.2 37.2779 28.7502 37.3978 28.3102C37.4598 28.0826 37.5474 27.8611 37.6595 27.6513C37.3679 27.3087 37.1507 26.9098 37.0258 26.4829C36.8032 25.7219 36.8694 24.9189 37.2121 24.216L37.0146 24.2531C35.9925 24.447 34.9431 24.1594 34.1939 23.5381C33.6994 23.1284 33.3586 22.6135 33.1806 22.0527Z" fill="black"/>
<path fill-rule="evenodd" clip-rule="evenodd" d="M29.7975 20.3311L37.3768 10.2421L34.9877 20.9043L46.1854 19.3223L37.8699 25.3075L43.322 26.6326L37.9988 28.6011L44.1196 36.8778L35.738 31.8333L37.7972 49.3504L29.5928 33.4476L19.8739 45.9585L24.8812 30.6228L11.1562 30.0173L22.8324 24.9723L9.31213 13.8739L24.6764 22.3492L25.4907 5.36695L29.7975 20.3311Z" fill="#FF7A44"/>
<path d="M30.7624 31.409C33.1066 31.409 35.007 29.5731 35.007 27.3083C35.007 25.0435 33.1066 23.2076 30.7624 23.2076C28.4182 23.2076 26.5178 25.0435 26.5178 27.3083C26.5178 29.5731 28.4182 31.409 30.7624 31.409Z" fill="#FFCD80"/>
<path d="M27.955 27.668C29.147 27.668 30.1133 26.6695 30.1133 25.4378C30.1133 24.2061 29.147 23.2076 27.955 23.2076C26.763 23.2076 25.7968 24.2061 25.7968 25.4378C25.7968 26.6695 26.763 27.668 27.955 27.668Z" fill="#FCF1E2"/>
</svg>
