<svg width="359" height="300" viewBox="0 0 359 300" fill="none" xmlns="http://www.w3.org/2000/svg">
<rect width="358.147" height="299.931" transform="translate(0.480225 0.0495605)" fill="url(#paint0_linear_33_60)"/>
<rect width="358.147" height="299.931" transform="translate(0.480225 0.0495605)" fill="#64A2DC" fill-opacity="0.2" style="mix-blend-mode:multiply"/>
<rect width="358.147" height="299.931" transform="translate(0.480225 0.0495605)" fill="url(#paint1_linear_33_60)" fill-opacity="0.41" style="mix-blend-mode:overlay"/>
<path d="M179.366 286.93C235.299 286.93 280.641 282.752 280.641 277.599C280.641 272.445 235.299 268.267 179.366 268.267C123.433 268.267 78.0906 272.445 78.0906 277.599C78.0906 282.752 123.433 286.93 179.366 286.93Z" fill="#010001" fill-opacity="0.11"/>
<path fill-rule="evenodd" clip-rule="evenodd" d="M179.369 263.94C134.114 263.94 95.6742 266.728 82.1067 270.48C78.8051 271.393 76.6521 272.548 75.6041 273.537C74.2283 274.836 73.7637 276.27 73.7637 277.602C73.7637 278.934 74.2283 280.368 75.6041 281.667C76.6521 282.656 78.8051 283.811 82.1067 284.724C95.6742 288.476 134.114 291.264 179.369 291.264C224.626 291.264 263.065 288.476 276.633 284.724C279.934 283.811 282.087 282.656 283.135 281.667C284.511 280.368 284.975 278.934 284.975 277.602C284.975 276.27 284.511 274.836 283.135 273.537C282.087 272.548 279.934 271.393 276.633 270.48C263.065 266.728 224.626 263.94 179.369 263.94ZM179.369 268.271C235.265 268.271 280.645 272.452 280.645 277.602C280.645 282.753 235.265 286.934 179.369 286.934C123.474 286.934 78.0941 282.753 78.0941 277.602C78.0941 272.452 123.474 268.271 179.369 268.271Z" fill="#010001" fill-opacity="0.07"/>
<path fill-rule="evenodd" clip-rule="evenodd" d="M131.807 251.461H117.158L118.885 274.907L130.535 273.829L131.807 251.461Z" fill="black"/>
<path fill-rule="evenodd" clip-rule="evenodd" d="M232.057 255.804H219.538L220.344 274.165L231.366 274.74L232.057 255.804Z" fill="black"/>
<path fill-rule="evenodd" clip-rule="evenodd" d="M131.063 44.7781C97.5883 74.8917 85.7871 169.533 105.154 266.103C148.174 257.225 200.947 258.114 254.302 263.309C261.319 193.155 256.959 77.4594 245.239 44.7781C209.403 38.1121 171.584 37.3917 131.063 44.7781Z" fill="#ECECEC"/>
<path fill-rule="evenodd" clip-rule="evenodd" d="M131.063 44.7781C97.5883 74.8917 85.7871 169.533 105.154 266.103C148.174 257.225 200.947 258.114 254.302 263.309C261.319 193.155 256.959 77.4594 245.239 44.7781C209.403 38.1121 171.584 37.3917 131.063 44.7781ZM132.453 47.5806C171.617 40.5456 208.232 41.1547 242.964 47.4169C254.03 81.4546 258.059 191.186 251.6 260.031C200.168 255.178 149.432 254.428 107.52 262.564C96.5563 206.068 96.294 150.46 104.849 108.481C110.448 81.0129 119.742 59.4311 132.453 47.5811L132.453 47.5806Z" fill="black"/>
<path fill-rule="evenodd" clip-rule="evenodd" d="M205.734 121.807C207.852 122.009 216.077 154.654 215.852 160.029C220.052 159.245 227.81 157.626 227.81 157.626C225.597 144.741 221.997 131.741 217.426 118.659L205.734 121.807Z" fill="#FEFFFE" stroke="#010001" stroke-width="2.29335" stroke-miterlimit="1.5"/>
<path d="M97.2324 180.801C144.518 167.044 226.153 168.492 255.452 182.54" stroke="#010001" stroke-width="2.80299" stroke-miterlimit="1.5" stroke-linejoin="round"/>
<path fill-rule="evenodd" clip-rule="evenodd" d="M183.036 101.525C175.856 97.8271 167.618 97.3016 158.519 99.3595C155.609 110.414 153.703 121.048 154.722 134.067C162.624 132.98 170.678 133.558 178.963 136.692C178.704 124.721 180.103 113.005 183.036 101.525Z" fill="#FEFFFE" stroke="#010001" stroke-width="2.29335" stroke-miterlimit="1.5"/>
<path d="M176.215 113.445C176.215 113.445 172.552 112.059 168.407 112.059C164.263 112.059 161.94 112.063 161.94 112.063" stroke="#010001" stroke-width="2.29335" stroke-miterlimit="1.5"/>
<path d="M174.488 117.942C174.488 117.942 169.458 116.745 165.313 116.745C161.169 116.745 158.186 115.9 158.186 115.9" stroke="#010001" stroke-width="2.29335" stroke-miterlimit="1.5"/>
<path d="M176.794 122.079C176.794 122.079 172.707 121.259 168.563 121.259C164.418 121.259 162.52 120.697 162.52 120.697" stroke="#010001" stroke-width="2.29335" stroke-miterlimit="1.5"/>
<path d="M172.53 126.457C172.53 126.457 168.82 125.071 164.676 125.071C160.532 125.071 158.256 125.075 158.256 125.075" stroke="#010001" stroke-width="2.29335" stroke-miterlimit="1.5"/>
<path d="M176.791 130.94C176.791 130.94 172.845 129.837 168.262 129.837C163.68 129.837 161.007 130.243 161.007 130.243" stroke="#010001" stroke-width="2.29335" stroke-miterlimit="1.5"/>
<path d="M160.788 108.15C160.788 108.15 167.925 106.538 171.724 108.38" stroke="#010001" stroke-width="2.29335" stroke-miterlimit="1.5"/>
<path fill-rule="evenodd" clip-rule="evenodd" d="M122.373 194.929C118.163 207.853 119.238 230.704 125.071 246.372L133.704 246.192C128.779 230.691 125.619 212.048 127.769 195.288L122.373 194.929Z" fill="#010001"/>
<path fill-rule="evenodd" clip-rule="evenodd" d="M140.911 64.9335C127.072 94.8948 121.234 126.107 122.744 158.466L131.737 159.186C128.605 126.85 134.51 95.7703 148.645 65.8331L140.911 64.9335Z" fill="#010001"/>
<path fill-rule="evenodd" clip-rule="evenodd" d="M217.5 71.4712L211.718 57.1384C211.577 56.7878 211.163 56.5826 210.742 56.653C210.32 56.7239 210.013 57.0498 210.016 57.4232L210.179 74.5507L191.873 67.1612C191.465 66.996 190.975 67.1323 190.743 67.4744C190.51 67.8171 190.612 68.2533 190.977 68.4804L207.294 78.6317L194.502 84.4156C194.138 84.5803 193.947 84.9413 194.043 85.286C194.14 85.6307 194.497 85.8671 194.905 85.8563L210.753 85.4435L205.928 101.381C205.818 101.742 206.021 102.114 206.407 102.263C206.794 102.413 207.253 102.296 207.494 101.987L217.854 88.7353L228.401 104.186C228.615 104.501 229.061 104.632 229.458 104.499C229.855 104.365 230.09 104.004 230.018 103.641L226.563 86.4716L235.691 90.533C236.061 90.6973 236.516 90.6092 236.78 90.3221C237.043 90.0345 237.04 89.6289 236.773 89.3523L229.38 81.6993L234.751 79.577C235.104 79.4374 235.315 79.1143 235.271 78.7812C235.228 78.4481 234.939 78.1828 234.56 78.1281L229.604 77.4081L237.982 71.3663C238.296 71.1407 238.396 70.7601 238.224 70.4447C238.054 70.1286 237.655 69.9595 237.261 70.0342L224.777 72.3961L226.78 61.8167C226.848 61.4603 226.622 61.1157 226.238 60.9894C225.854 60.8631 225.417 60.9893 225.188 61.2925L217.5 71.4712ZM216.427 73.44C216.536 73.7119 216.814 73.9032 217.143 73.9345C217.473 73.9658 217.798 73.8313 217.982 73.5875L224.387 65.1072L222.842 73.2665C222.795 73.5147 222.89 73.7648 223.097 73.9364C223.303 74.1074 223.595 74.1782 223.877 74.1245L234.12 72.1869L227.022 77.3042C226.757 77.4963 226.64 77.8032 226.724 78.0911C226.809 78.379 227.078 78.5946 227.414 78.6438L231.422 79.2257L227.612 80.7309C227.359 80.8308 227.173 81.0276 227.109 81.2626C227.045 81.4974 227.112 81.7428 227.287 81.9246L232.61 87.4344L225.802 84.4048C225.506 84.2734 225.148 84.3015 224.878 84.4772C224.607 84.653 224.473 84.9462 224.531 85.2319L227.461 99.8002L218.667 86.9161C218.515 86.694 218.242 86.5567 217.944 86.5516C217.645 86.5471 217.361 86.6755 217.191 86.8929L208.91 97.4863L212.741 84.8325C212.811 84.6005 212.754 84.3552 212.586 84.1695C212.417 83.9834 212.157 83.8784 211.884 83.8855L198.693 84.2291L209.362 79.4059C209.635 79.282 209.818 79.0444 209.843 78.7787C209.869 78.5131 209.733 78.2573 209.487 78.1038L199.706 72.0185L210.687 76.4512C210.959 76.5609 211.28 76.5396 211.536 76.3942C211.79 76.2488 211.944 76.0003 211.942 75.7364L211.811 61.9973L216.427 73.44Z" fill="#FFF7D3"/>
<path fill-rule="evenodd" clip-rule="evenodd" d="M207.667 70.8724L192.798 64.8699C191.31 64.2692 189.542 64.8388 188.694 66.0885C187.657 67.6144 188.04 69.5733 189.668 70.5867L202.051 78.2901L193.481 82.1642C191.922 82.8698 191.246 84.4836 191.658 85.9563C192.038 87.3155 193.359 88.3775 194.969 88.3356L207.389 88.0118L203.557 100.668C203.082 102.238 203.832 103.927 205.514 104.577C206.917 105.119 208.566 104.638 209.444 103.516L217.717 92.9321L226.355 105.586C227.153 106.755 228.772 107.346 230.247 106.849C231.913 106.288 232.749 104.679 232.443 103.157L229.934 90.686L234.684 92.7991C236.017 93.3922 237.654 93.0352 238.603 91.9992C239.788 90.7068 239.754 88.8809 238.552 87.6373L233.73 82.6459L235.66 81.8838C237.144 81.297 237.909 79.8629 237.725 78.4628C237.584 77.3949 236.891 76.4329 235.853 75.9575L239.429 73.3788C240.816 72.3782 241.157 70.6676 240.4 69.2698C239.753 68.0745 238.295 67.3235 236.799 67.6066L227.884 69.2936L229.212 62.2818C229.501 60.7499 228.662 59.1858 227.011 58.6426C225.616 58.1837 224.044 58.7036 223.212 59.805L218.159 66.495L214.013 56.217C213.47 54.8701 211.954 53.9446 210.332 54.2159C208.627 54.5015 207.525 55.9419 207.54 57.4513L207.667 70.8724ZM217.499 71.4757L211.717 57.1429C211.576 56.7922 211.162 56.587 210.741 56.6574C210.319 56.7284 210.012 57.0543 210.015 57.4277L210.178 74.5552L191.872 67.1657C191.464 67.0005 190.974 67.1368 190.742 67.4789C190.509 67.8215 190.611 68.2577 190.976 68.4849L207.293 78.6362L194.501 84.4201C194.137 84.5848 193.946 84.9458 194.042 85.2905C194.139 85.6351 194.496 85.8716 194.904 85.8608L210.752 85.448L205.926 101.386C205.817 101.746 206.02 102.118 206.406 102.268C206.793 102.417 207.252 102.301 207.493 101.991L217.853 88.7398L228.4 104.191C228.614 104.506 229.06 104.637 229.457 104.503C229.854 104.37 230.089 104.008 230.017 103.646L226.562 86.476L235.69 90.5375C236.06 90.7018 236.515 90.6137 236.779 90.3266C237.042 90.0389 237.039 89.6334 236.772 89.3568L229.379 81.7037L234.75 79.5814C235.103 79.4418 235.314 79.1188 235.27 78.7857C235.227 78.4526 234.938 78.1873 234.559 78.1326L229.603 77.4126L237.981 71.3708C238.295 71.1452 238.395 70.7646 238.223 70.4491C238.053 70.133 237.654 69.9639 237.26 70.0387L224.776 72.4005L226.779 61.8212C226.847 61.4648 226.621 61.1202 226.237 60.9939C225.853 60.8676 225.416 60.9938 225.187 61.297L217.499 71.4757ZM216.426 73.4445C216.535 73.7163 216.813 73.9076 217.142 73.9389C217.472 73.9702 217.797 73.8358 217.981 73.592L224.386 65.1117L222.841 73.271C222.794 73.5192 222.889 73.7693 223.096 73.9408C223.302 74.1118 223.594 74.1826 223.876 74.129L234.119 72.1914L227.021 77.3087C226.756 77.5007 226.639 77.8077 226.723 78.0956C226.808 78.3835 227.077 78.5991 227.413 78.6482L231.421 79.2302L227.611 80.7353C227.358 80.8352 227.172 81.0321 227.108 81.267C227.044 81.5019 227.111 81.7473 227.286 81.9291L232.609 87.4389L225.801 84.4093C225.505 84.2779 225.147 84.306 224.877 84.4817C224.606 84.6575 224.472 84.9506 224.53 85.2364L227.46 99.8047L218.666 86.9206C218.514 86.6985 218.241 86.5611 217.943 86.5561C217.644 86.5516 217.36 86.68 217.19 86.8974L208.909 97.4908L212.74 84.837C212.81 84.605 212.753 84.3596 212.585 84.174C212.416 83.9879 212.156 83.8829 211.883 83.89L198.692 84.2336L209.361 79.4104C209.634 79.2865 209.817 79.0489 209.842 78.7832C209.868 78.5176 209.732 78.2617 209.486 78.1083L199.705 72.023L210.686 76.4556C210.958 76.5654 211.279 76.5441 211.535 76.3986C211.789 76.2532 211.943 76.0048 211.941 75.7409L211.81 62.0018L216.426 73.4445ZM220.502 74.3607L219.956 75.0839C219.282 75.9765 218.114 76.5178 216.909 76.4036C215.831 76.3011 214.932 75.7127 214.408 74.9042L214.416 75.7178C214.426 76.8368 213.842 77.9333 212.759 78.55C212.618 78.63 212.472 78.6998 212.321 78.7571C212.32 78.8446 212.314 78.9319 212.306 79.0193C212.214 79.9783 211.681 80.8861 210.797 81.4424L211.819 81.4157C212.839 81.3891 213.791 81.8191 214.42 82.5125C215.185 83.358 215.428 84.4775 215.114 85.5338L215.241 85.3729C215.863 84.5755 216.886 84.064 217.982 84.0812C219.12 84.099 220.132 84.6774 220.71 85.525L222.627 88.3341L222.102 85.7246C221.853 84.481 222.353 83.1708 223.527 82.407C223.868 82.1846 224.249 82.0289 224.646 81.9429C224.576 81.508 224.6 81.0582 224.719 80.6182C224.781 80.3906 224.869 80.1691 224.981 79.9592C224.69 79.6167 224.472 79.2178 224.347 78.7908C224.125 78.0298 224.191 77.2269 224.534 76.524L224.336 76.5611C223.314 76.7549 222.265 76.4674 221.516 75.8461C221.021 75.4363 220.68 74.9215 220.502 74.3607Z" fill="black"/>
<path fill-rule="evenodd" clip-rule="evenodd" d="M217.119 72.639L224.698 62.55L222.309 73.2123L233.507 71.6302L225.192 77.6155L230.644 78.9406L225.32 80.9091L231.441 89.1857L223.06 84.1412L225.119 101.658L216.914 85.7555L207.196 98.2665L212.203 82.9308L198.478 82.3253L210.154 77.2802L196.634 66.1819L211.998 74.6572L212.812 57.6749L217.119 72.639Z" fill="#FF7A44"/>
<path d="M218.084 83.717C220.428 83.717 222.329 81.881 222.329 79.6163C222.329 77.3515 220.428 75.5155 218.084 75.5155C215.74 75.5155 213.839 77.3515 213.839 79.6163C213.839 81.881 215.74 83.717 218.084 83.717Z" fill="#FFCD80"/>
<path d="M215.277 79.976C216.469 79.976 217.435 78.9775 217.435 77.7458C217.435 76.514 216.469 75.5155 215.277 75.5155C214.085 75.5155 213.118 76.514 213.118 77.7458C213.118 78.9775 214.085 79.976 215.277 79.976Z" fill="#FCF1E2"/>
<path fill-rule="evenodd" clip-rule="evenodd" d="M167.286 207.327L178.807 229.986L197.918 220.993L186.001 197.61L167.286 207.327Z" fill="#FEFFFE" stroke="#010001" stroke-width="1.78372" stroke-miterlimit="1.5"/>
<path fill-rule="evenodd" clip-rule="evenodd" d="M176.481 225.407L177.195 217.174L184.654 220.214L187.325 213.491L197.363 220.214L179.313 229.054L176.481 225.407Z" fill="#BEFEBB" stroke="#010001" stroke-width="1.78372" stroke-miterlimit="1.5"/>
<path d="M183.274 209.769C185.181 209.769 186.727 208.223 186.727 206.315C186.727 204.408 185.181 202.862 183.274 202.862C181.366 202.862 179.82 204.408 179.82 206.315C179.82 208.223 181.366 209.769 183.274 209.769Z" fill="#FFB632" stroke="#010001" stroke-width="1.78372" stroke-miterlimit="1.5"/>
<defs>
<linearGradient id="paint0_linear_33_60" x1="179.073" y1="0" x2="179.073" y2="299.931" gradientUnits="userSpaceOnUse">
<stop stop-color="#001C53"/>
<stop offset="0.297613" stop-color="#539DC0"/>
<stop offset="0.424224" stop-color="#74B7CC"/>
<stop offset="0.8125" stop-color="#CBBF93"/>
<stop offset="1" stop-color="#816530"/>
</linearGradient>
<linearGradient id="paint1_linear_33_60" x1="179.073" y1="0" x2="179.073" y2="299.931" gradientUnits="userSpaceOnUse">
<stop stop-color="#003068"/>
<stop offset="0.682292" stop-color="#6586AC"/>
<stop offset="1" stop-color="#CCB694"/>
</linearGradient>
</defs>
</svg>
